# Blender v2.78 (sub 0) OBJ File: 'cupnoodle.blend'
# www.blender.org
mtllib cupnoodle.mtl
o Circle.002_Circle.003
v 0.276269 1.618296 -0.686379
v 0.317998 1.742860 -0.742931
v 0.553643 1.717927 -0.686378
v 0.743237 1.619877 -0.525331
v 0.864359 1.538260 -0.284307
v 0.907120 1.501251 0.000000
v 0.864360 1.538260 0.284307
v 0.743236 1.619877 0.525331
v 0.553643 1.717927 0.686378
v 0.317998 1.742860 0.742931
v 0.276269 1.618296 0.686378
v 0.525332 1.617818 0.525331
v 0.686379 1.617818 0.284307
v 0.742931 1.617818 -0.000000
v 0.686378 1.617818 -0.284308
v 0.525331 1.617818 -0.525332
v 0.220565 1.623223 -0.697046
v 0.220566 1.623222 0.697046
v 0.194385 1.644315 0.706469
v 0.194385 1.644315 -0.706470
v 0.198393 1.684038 0.716962
v 0.198393 1.684039 -0.716962
v 0.240609 1.722822 0.728776
v 0.240609 1.722823 -0.728776
v 0.435821 1.742123 -0.714655
v 0.435820 1.742123 0.714654
v 0.649130 1.678562 -0.605855
v 0.649130 1.678562 0.605855
vn 0.0015 1.0000 0.0000
vn 0.0570 0.9984 0.0000
vn 0.0000 1.0000 0.0000
vn 0.4138 0.9103 0.0000
vn 0.9540 0.2997 0.0000
vn 0.8674 -0.4976 0.0000
vn 0.4509 -0.8925 0.0000
vn 0.1261 -0.9920 0.0000
vn -0.0897 -0.9959 0.0000
vn -0.4263 -0.9046 0.0000
vn -0.2625 -0.9649 0.0000
vn -0.5658 -0.8245 0.0000
vn -0.5351 -0.8448 0.0000
vn -0.6544 -0.7561 0.0000
usemtl None
s 1
f 12//1 16//1 1//2 11//2
f 13//3 15//3 16//1 12//1
f 14//3 15//3 13//3
f 17//4 18//4 11//2 1//2
f 20//5 19//5 18//4 17//4
f 22//6 21//6 19//5 20//5
f 24//7 23//7 21//6 22//6
f 2//8 10//8 23//7 24//7
f 25//9 26//9 10//8 2//8
f 27//10 28//10 9//11 3//11
f 5//12 7//12 8//13 4//13
f 6//14 7//12 5//12
f 3//11 9//11 26//9 25//9
f 4//13 8//13 28//10 27//10
o Circle.001_Circle.002
v 0.264523 1.346374 -0.638616
v -0.000000 1.346374 -0.691232
v -0.264523 1.346374 -0.638615
v -0.488775 1.346374 -0.488775
v -0.638616 1.346374 -0.264523
v -0.691233 1.346374 0.000000
v -0.638615 1.346374 0.264523
v -0.488775 1.346374 0.488775
v -0.264523 1.346374 0.638616
v 0.000000 1.346374 0.691232
v 0.264523 1.346374 0.638615
v 0.488775 1.346374 0.488775
v 0.638616 1.346374 0.264523
v 0.691232 1.346374 -0.000000
v 0.638615 1.346374 -0.264524
v 0.488775 1.346374 -0.488776
v -0.000000 1.346374 -0.000000
vn 0.0000 -1.0000 0.0000
usemtl None
s off
f 40//15 39//15 45//15
f 33//15 32//15 45//15
f 41//15 40//15 45//15
f 34//15 33//15 45//15
f 42//15 41//15 45//15
f 35//15 34//15 45//15
f 43//15 42//15 45//15
f 36//15 35//15 45//15
f 44//15 43//15 45//15
f 37//15 36//15 45//15
f 30//15 29//15 45//15
f 29//15 44//15 45//15
f 38//15 37//15 45//15
f 31//15 30//15 45//15
f 39//15 38//15 45//15
f 32//15 31//15 45//15
o Circle_Circle.001
v 0.196678 0.000000 -0.474822
v -0.000000 0.000000 -0.513944
v -0.196678 0.000000 -0.474822
v -0.363413 0.000000 -0.363413
v -0.474822 0.000000 -0.196678
v -0.513944 0.000000 0.000000
v -0.474822 0.000000 0.196678
v -0.363413 0.000000 0.363413
v -0.196678 0.000000 0.474822
v 0.000000 0.000000 0.513944
v 0.196678 0.000000 0.474822
v 0.363413 0.000000 0.363413
v 0.474822 0.000000 0.196678
v 0.513944 0.000000 -0.000000
v 0.474822 0.000000 -0.196678
v 0.363413 0.000000 -0.363414
v -0.000000 0.000000 -0.000000
v 0.684510 1.618341 -0.283534
v 0.740908 1.618341 -0.000000
v 0.684510 1.618341 0.283533
v 0.523901 1.618341 0.523901
v 0.283533 1.618341 0.684510
v 0.000000 1.618341 0.740908
v -0.283533 1.618341 0.684510
v -0.523901 1.618341 0.523901
v -0.684510 1.618341 0.283534
v -0.740908 1.618341 0.000000
v -0.684510 1.618341 -0.283533
v -0.523902 1.618341 -0.523901
v -0.283534 1.618341 -0.684510
v -0.000000 1.618341 -0.740908
v 0.283533 1.618341 -0.684510
v 0.523901 1.618341 -0.523902
v -0.000000 0.000000 -0.513944
v 0.196678 0.000000 -0.474822
v -0.196678 0.000000 -0.474822
v -0.363413 0.000000 -0.363413
v -0.474822 0.000000 -0.196678
v -0.513944 0.000000 0.000000
v -0.474822 0.000000 0.196678
v -0.363413 0.000000 0.363413
v -0.196678 0.000000 0.474822
v 0.000000 0.000000 0.513944
v 0.196678 0.000000 0.474822
v 0.363413 0.000000 0.363413
v 0.474822 0.000000 0.196678
v 0.513944 0.000000 -0.000000
v 0.474822 0.000000 -0.196678
v 0.363413 0.000000 -0.363414
vn 0.0000 -1.0000 0.0000
vn -0.9149 -0.1389 0.3789
vn -0.7002 -0.1389 0.7002
vn 0.9149 -0.1389 -0.3789
vn 0.7002 -0.1389 -0.7002
vn -0.3789 -0.1389 0.9149
vn 0.3789 -0.1389 -0.9149
vn 0.0000 -0.1389 -0.9903
vn 0.0000 -0.1389 0.9903
vn -0.3789 -0.1389 -0.9149
vn 0.3789 -0.1389 0.9149
vn -0.7002 -0.1389 -0.7002
vn 0.7002 -0.1389 0.7002
vn -0.9149 -0.1389 -0.3789
vn 0.9149 -0.1389 0.3789
vn -0.9903 -0.1389 0.0000
vn 0.9903 -0.1389 0.0000
usemtl None
s 1
f 86//16 85//16 62//16
f 94//16 93//16 62//16
f 87//16 86//16 62//16
f 79//16 80//16 62//16
f 80//16 94//16 62//16
f 88//16 87//16 62//16
f 81//16 79//16 62//16
f 89//16 88//16 62//16
f 82//16 81//16 62//16
f 90//16 89//16 62//16
f 83//16 82//16 62//16
f 91//16 90//16 62//16
f 84//16 83//16 62//16
f 92//16 91//16 62//16
f 85//16 84//16 62//16
f 93//16 92//16 62//16
f 52//17 53//18 70//18 71//17
f 60//19 61//20 78//20 63//19
f 53//18 54//21 69//21 70//18
f 46//22 47//23 76//23 77//22
f 61//20 46//22 77//22 78//20
f 54//21 55//24 68//24 69//21
f 47//23 48//25 75//25 76//23
f 55//24 56//26 67//26 68//24
f 48//25 49//27 74//27 75//25
f 56//26 57//28 66//28 67//26
f 49//27 50//29 73//29 74//27
f 57//28 58//30 65//30 66//28
f 50//29 51//31 72//31 73//29
f 58//30 59//32 64//32 65//30
f 51//31 52//17 71//17 72//31
f 59//32 60//19 63//19 64//32
