# Blender v2.78 (sub 0) OBJ File: ''
# www.blender.org
o Circle.001
v 0.000000 1.430272 -2.032413
v -0.777771 1.430272 -1.877705
v -1.437133 1.430272 -1.437133
v -1.877705 1.430272 -0.777771
v -2.032413 1.430272 0.000000
v -1.877705 1.430272 0.777771
v -1.437133 1.430272 1.437133
v -0.777771 1.430272 1.877705
v -0.000000 1.430272 2.032413
v 0.777770 1.430272 1.877705
v 1.437132 1.430272 1.437133
v 1.877705 1.430272 0.777771
v 2.032413 1.430272 -0.000000
v 1.877704 1.430272 -0.777771
v 1.437132 1.430272 -1.437133
v 0.777770 1.430272 -1.877705
v -0.000000 1.430272 0.000000
vn 0.0000 -1.0000 0.0000
s off
f 15//1 14//1 17//1
f 8//1 7//1 17//1
f 16//1 15//1 17//1
f 9//1 8//1 17//1
f 2//1 1//1 17//1
f 1//1 16//1 17//1
f 10//1 9//1 17//1
f 3//1 2//1 17//1
f 11//1 10//1 17//1
f 4//1 3//1 17//1
f 12//1 11//1 17//1
f 5//1 4//1 17//1
f 13//1 12//1 17//1
f 6//1 5//1 17//1
f 14//1 13//1 17//1
f 7//1 6//1 17//1
o Circle
v 0.000000 0.000000 -1.000000
v -0.382683 0.000000 -0.923880
v -0.707107 0.000000 -0.707107
v -0.923880 0.000000 -0.382683
v -1.000000 0.000000 0.000000
v -0.923880 0.000000 0.382684
v -0.707107 0.000000 0.707107
v -0.382683 0.000000 0.923880
v -0.000000 0.000000 1.000000
v 0.382683 0.000000 0.923880
v 0.707107 0.000000 0.707107
v 0.923880 0.000000 0.382684
v 1.000000 0.000000 -0.000000
v 0.923879 0.000000 -0.382684
v 0.707107 0.000000 -0.707107
v 0.382683 0.000000 -0.923880
v -0.000000 0.000000 -0.000000
v 1.091324 0.465098 -1.091325
v 1.425884 0.465098 -0.590621
v 1.543366 0.465098 -0.000000
v 1.425884 0.465098 0.590621
v 1.091324 0.465098 1.091325
v 0.590620 0.465098 1.425884
v -0.000000 0.465098 1.543365
v -0.590620 0.465098 1.425884
v -1.091324 0.465098 1.091324
v -1.425884 0.465098 0.590621
v -1.543365 0.465098 0.000000
v -1.425884 0.465098 -0.590620
v -1.091324 0.465098 -1.091324
v -0.590620 0.465098 -1.425884
v 0.000000 0.465098 -1.543365
v 0.590620 0.465098 -1.425884
v 1.351968 1.033551 -1.351969
v 1.766432 1.033551 -0.731680
v 1.911972 1.033551 -0.000000
v 1.766432 1.033551 0.731680
v 1.351968 1.033551 1.351969
v 0.731680 1.033551 1.766432
v -0.000000 1.033551 1.911972
v -0.731680 1.033551 1.766432
v -1.351969 1.033551 1.351969
v -1.766432 1.033551 0.731680
v -1.911972 1.033551 0.000000
v -1.766432 1.033551 -0.731680
v -1.351969 1.033551 -1.351969
v -0.731680 1.033551 -1.766432
v 0.000000 1.033551 -1.911972
v 0.731679 1.033551 -1.766432
v 1.496105 1.675844 -1.496106
v 1.954756 1.675844 -0.809687
v 2.115813 1.675844 -0.000000
v 1.954756 1.675844 0.809687
v 1.496105 1.675844 1.496106
v 0.809686 1.675844 1.954757
v -0.000000 1.675844 2.115813
v -0.809687 1.675844 1.954756
v -1.496106 1.675844 1.496106
v -1.954756 1.675844 0.809687
v -2.115813 1.675844 0.000000
v -1.954756 1.675844 -0.809687
v -1.496106 1.675844 -1.496106
v -0.809687 1.675844 -1.954756
v 0.000000 1.675844 -2.115813
v 0.809686 1.675844 -1.954757
vn 0.2712 -0.9235 -0.2712
vn 0.3544 -0.9235 -0.1468
vn 0.0000 -1.0000 0.0000
vn -0.1468 -0.9235 0.3544
vn -0.2712 -0.9235 0.2712
vn 0.1468 -0.9235 -0.3544
vn 0.0000 -0.9235 0.3836
vn -0.1468 -0.9235 -0.3544
vn 0.0000 -0.9235 -0.3836
vn 0.1468 -0.9235 0.3544
vn -0.2712 -0.9235 -0.2712
vn 0.2712 -0.9235 0.2712
vn -0.3544 -0.9235 -0.1468
vn 0.3544 -0.9235 0.1468
vn -0.3836 -0.9235 0.0000
vn 0.3836 -0.9235 0.0000
vn -0.3544 -0.9235 0.1468
vn 0.5374 -0.6500 -0.5374
vn 0.7021 -0.6500 -0.2908
vn -0.2908 -0.6500 0.7021
vn -0.5374 -0.6500 0.5374
vn 0.2908 -0.6500 -0.7021
vn 0.0000 -0.6500 0.7599
vn -0.2908 -0.6500 -0.7021
vn 0.0000 -0.6500 -0.7599
vn 0.2908 -0.6500 0.7021
vn -0.5374 -0.6500 -0.5374
vn 0.5374 -0.6500 0.5374
vn -0.7021 -0.6500 -0.2908
vn 0.7021 -0.6500 0.2908
vn -0.7599 -0.6500 0.0000
vn 0.7599 -0.6500 0.0000
vn -0.7021 -0.6500 0.2908
vn 0.9071 -0.4208 0.0000
vn 0.8381 -0.4208 0.3471
vn -0.8381 -0.4208 0.3471
vn -0.9071 -0.4208 0.0000
vn 0.6414 -0.4208 0.6414
vn -0.8381 -0.4208 -0.3471
vn 0.3471 -0.4208 0.8381
vn -0.6414 -0.4208 -0.6414
vn 0.0000 -0.4208 -0.9071
vn 0.3471 -0.4208 -0.8381
vn -0.3471 -0.4208 -0.8381
vn 0.0000 -0.4208 0.9071
vn 0.6414 -0.4208 -0.6414
vn -0.3471 -0.4208 0.8381
vn 0.8381 -0.4208 -0.3471
vn -0.6414 -0.4208 0.6414
vn 0.0000 -0.3025 0.9531
vn -0.3647 -0.3025 0.8806
vn 0.3647 -0.3025 -0.8806
vn 0.6740 -0.3025 -0.6740
vn -0.6740 -0.3025 0.6740
vn 0.8806 -0.3025 -0.3647
vn -0.8806 -0.3025 0.3647
vn 0.9531 -0.3025 0.0000
vn -0.9531 -0.3025 0.0000
vn 0.8806 -0.3025 0.3647
vn -0.8806 -0.3025 -0.3647
vn 0.6740 -0.3025 0.6740
vn -0.6740 -0.3025 -0.6740
vn 0.3647 -0.3025 0.8806
vn -0.3647 -0.3025 -0.8806
vn 0.0000 -0.3025 -0.9531
s 1
f 32//2 31//3 34//4
f 25//5 24//6 34//4
f 33//7 32//2 34//4
f 26//8 25//5 34//4
f 19//9 18//10 34//4
f 18//10 33//7 34//4
f 27//11 26//8 34//4
f 20//12 19//9 34//4
f 28//13 27//11 34//4
f 21//14 20//12 34//4
f 29//15 28//13 34//4
f 22//16 21//14 34//4
f 30//17 29//15 34//4
f 23//18 22//16 34//4
f 31//3 30//17 34//4
f 24//6 23//18 34//4
f 31//3 32//2 35//19 36//20
f 24//6 25//5 42//21 43//22
f 32//2 33//7 50//23 35//19
f 25//5 26//8 41//24 42//21
f 18//10 19//9 48//25 49//26
f 33//7 18//10 49//26 50//23
f 26//8 27//11 40//27 41//24
f 19//9 20//12 47//28 48//25
f 27//11 28//13 39//29 40//27
f 20//12 21//14 46//30 47//28
f 28//13 29//15 38//31 39//29
f 21//14 22//16 45//32 46//30
f 29//15 30//17 37//33 38//31
f 22//16 23//18 44//34 45//32
f 30//17 31//3 36//20 37//33
f 23//18 24//6 43//22 44//34
f 38//31 37//33 53//35 54//36
f 45//32 44//34 60//37 61//38
f 39//29 38//31 54//36 55//39
f 46//30 45//32 61//38 62//40
f 40//27 39//29 55//39 56//41
f 47//28 46//30 62//40 63//42
f 50//23 49//26 65//43 66//44
f 48//25 47//28 63//42 64//45
f 41//24 40//27 56//41 57//46
f 35//19 50//23 66//44 51//47
f 49//26 48//25 64//45 65//43
f 42//21 41//24 57//46 58//48
f 36//20 35//19 51//47 52//49
f 43//22 42//21 58//48 59//50
f 37//33 36//20 52//49 53//35
f 44//34 43//22 59//50 60//37
f 58//48 57//46 73//51 74//52
f 51//47 66//44 82//53 67//54
f 59//50 58//48 74//52 75//55
f 52//49 51//47 67//54 68//56
f 60//37 59//50 75//55 76//57
f 53//35 52//49 68//56 69//58
f 61//38 60//37 76//57 77//59
f 54//36 53//35 69//58 70//60
f 62//40 61//38 77//59 78//61
f 55//39 54//36 70//60 71//62
f 63//42 62//40 78//61 79//63
f 56//41 55//39 71//62 72//64
f 64//45 63//42 79//63 80//65
f 57//46 56//41 72//64 73//51
f 66//44 65//43 81//66 82//53
f 65//43 64//45 80//65 81//66
