# Blender v2.78 (sub 0) OBJ File: 'spoon.blend'
# www.blender.org
mtllib spoon.mtl
o Plane
v 0.617482 1.249552 -0.162738
v 0.672217 -1.262900 -0.028403
v 0.814925 -0.097509 -0.325475
v -0.814925 -0.097509 -0.325475
v 0.000000 -0.195018 -0.650950
v -0.672217 -1.262900 -0.028403
v 0.000000 -1.311654 -0.191141
v -0.617482 1.249552 -0.162738
v 0.000000 1.284958 -0.325475
v -0.010253 -2.458021 0.386358
v -0.020507 -4.291215 0.490566
v -0.020507 -8.933777 0.259530
v -0.020507 -7.135044 0.381642
v -1.008325 -1.214146 0.134334
v 0.500509 -1.821218 0.268669
v 0.926223 1.214146 0.000000
v -0.449037 1.989540 0.000000
v -0.926223 1.214146 0.000000
v -1.222388 0.000000 0.000000
v 1.008325 -1.214146 0.134334
v 1.222388 0.000000 0.000000
v -0.793748 -0.692393 -0.251207
v -0.751065 0.542793 -0.284791
v -0.500509 -1.821218 0.268669
v -0.002563 -1.853028 0.183139
v 0.449037 1.989540 0.000000
v 0.000000 2.157861 0.000000
v 0.793747 -0.692393 -0.251207
v 0.000000 -0.777713 -0.535998
v 0.751065 0.542793 -0.284791
v 0.000000 0.478513 -0.569582
v -0.407463 -0.170640 -0.569582
v 0.407463 -0.170640 -0.569582
v -0.336108 -1.299466 -0.150456
v 0.336108 -1.299466 -0.150456
v -0.308741 1.276106 -0.284791
v 0.308741 1.276106 -0.284791
v -0.017944 -3.234720 0.471255
v -0.260508 -2.458021 0.386358
v 0.240001 -2.458021 0.386358
v -0.020507 -5.600368 0.456594
v -0.270762 -4.291215 0.490566
v 0.229748 -4.291215 0.490566
v -0.020507 -9.085072 0.232862
v -0.487625 -8.933777 0.259530
v 0.333419 -7.135045 0.381642
v -0.374433 -7.135045 0.381642
v 0.446612 -8.933777 0.259530
v -0.020507 -8.408447 0.303392
v -0.752590 -1.669450 0.235085
v 0.752590 -1.669450 0.235085
v -0.680592 1.711530 0.000000
v 0.680592 1.711530 0.000000
v -1.126598 0.607073 0.000000
v -1.190621 -0.607073 0.033584
v 1.190621 -0.607073 0.033584
v 1.126598 0.607073 0.000000
v -0.315382 -1.980419 0.298091
v 0.310255 -1.980419 0.298091
v 0.224518 2.115780 0.000000
v -0.224518 2.115780 0.000000
v 0.396874 -0.756383 -0.464800
v -0.396874 -0.756383 -0.464800
v 0.375533 0.494583 -0.498384
v -0.375533 0.494583 -0.498384
v -0.268198 -3.234720 0.471255
v 0.232311 -3.234720 0.471255
v -0.296679 -5.600368 0.456594
v 0.255666 -5.600368 0.456594
v -0.375606 -9.047248 0.239529
v 0.334592 -9.047248 0.239529
v -0.454567 -8.408447 0.303392
v 0.413553 -8.408447 0.303392
v 0.627038 1.255431 -0.182815
v 0.681575 -1.273235 -0.046695
v 0.827748 -0.097668 -0.344568
v -0.827748 -0.097668 -0.344568
v 0.000000 -0.195932 -0.673932
v -0.681589 -1.273229 -0.046691
v 0.000001 -1.324162 -0.210442
v -0.627038 1.255431 -0.182815
v 0.000000 1.292123 -0.347330
v -0.010271 -2.462349 0.247963
v -0.020507 -4.291127 0.351760
v -0.020507 -8.930821 0.120914
v -0.020507 -7.133778 0.242870
v -1.019017 -1.223205 0.116098
v 0.508198 -1.832955 0.223424
v 0.937445 1.219345 -0.019391
v -0.456306 1.996320 -0.020741
v -0.937445 1.219345 -0.019391
v -1.236400 0.000253 -0.018237
v 1.019017 -1.223205 0.116098
v 1.236400 0.000253 -0.018237
v -0.805863 -0.698412 -0.269808
v -0.762844 0.546686 -0.304158
v -0.508247 -1.832936 0.223432
v -0.002561 -1.863680 0.046947
v 0.456306 1.996320 -0.020741
v 0.000000 2.165685 -0.021628
v 0.805863 -0.698412 -0.269808
v 0.000000 -0.786046 -0.557435
v 0.762844 0.546686 -0.304158
v 0.000000 0.483044 -0.592130
v -0.415513 -0.171305 -0.591116
v 0.415513 -0.171305 -0.591116
v -0.341906 -1.311379 -0.169256
v 0.341895 -1.311388 -0.169254
v -0.314351 1.282912 -0.306032
v 0.314351 1.282912 -0.306032
v -0.017944 -3.236181 0.332495
v -0.262124 -2.462376 0.248026
v 0.241629 -2.462446 0.248040
v -0.020507 -5.599508 0.317803
v -0.270762 -4.291124 0.351760
v 0.229748 -4.291124 0.351760
v -0.020507 -9.081079 0.094404
v -0.487625 -8.931140 0.120875
v 0.333419 -7.133773 0.242870
v -0.374433 -7.133773 0.242870
v 0.446612 -8.931140 0.120875
v -0.020507 -8.406785 0.164646
v -0.760364 -1.680119 0.216251
v 0.760364 -1.680119 0.216251
v -0.690032 1.717340 -0.020152
v 0.690032 1.717340 -0.020152
v -1.139616 0.610638 -0.018623
v -1.204107 -0.611781 0.015558
v 1.204107 -0.611781 0.015558
v 1.139616 0.610638 -0.018623
v -0.319390 -1.989927 0.161730
v 0.314244 -1.990011 0.161765
v 0.228460 2.123317 -0.021369
v -0.228460 2.123317 -0.021369
v 0.404361 -0.764021 -0.485161
v -0.404361 -0.764021 -0.485161
v 0.382814 0.498942 -0.519760
v -0.382814 0.498942 -0.519760
v -0.268198 -3.236177 0.332494
v 0.232311 -3.236185 0.332495
v -0.296679 -5.599503 0.317804
v 0.255666 -5.599503 0.317804
v -0.375606 -9.043256 0.101071
v 0.334592 -9.043256 0.101071
v -0.454567 -8.406775 0.164646
v 0.413553 -8.406775 0.164646
vn -0.4155 -0.2556 0.8729
vn -0.2439 -0.2959 0.9235
vn -0.3166 -0.1895 0.9294
vn -0.5121 -0.1693 0.8420
vn 0.1947 0.0357 0.9802
vn 0.2346 0.0793 0.9688
vn 0.2692 0.1882 0.9445
vn 0.2262 0.3390 0.9132
vn 0.1198 0.4407 0.8896
vn -0.4069 0.4494 0.7953
vn -0.2516 0.5184 0.8173
vn 0.4690 0.0496 0.8818
vn 0.1876 -0.2064 0.9603
vn 0.3121 -0.1573 0.9369
vn 0.2743 0.0949 0.9569
vn 0.2080 0.0804 0.9748
vn -0.5267 0.2617 0.8087
vn -0.3255 0.3321 0.8853
vn -0.5575 0.0069 0.8301
vn -0.3500 0.0289 0.9363
vn 0.1817 0.0363 0.9827
vn 0.5575 0.0069 0.8301
vn -0.1817 0.0363 0.9827
vn -0.2080 0.0804 0.9748
vn 0.5267 0.2617 0.8087
vn 0.3255 0.3321 0.8853
vn 0.3500 0.0289 0.9363
vn 0.3166 -0.1895 0.9294
vn 0.5121 -0.1693 0.8420
vn -0.1947 0.0357 0.9802
vn 0.0000 0.0398 0.9992
vn 0.0000 0.3623 0.9320
vn 0.0000 -0.1970 0.9804
vn 0.4075 0.4491 0.7951
vn -0.2743 0.0949 0.9569
vn -0.3121 -0.1573 0.9369
vn -0.1887 -0.2009 0.9612
vn -0.4697 0.0635 0.8805
vn 0.2521 0.5180 0.8174
vn -0.0001 0.5438 0.8392
vn -0.0001 0.4631 0.8863
vn 0.4155 -0.2556 0.8729
vn -0.2346 0.0793 0.9688
vn 0.2439 -0.2959 0.9235
vn -0.1198 0.4407 0.8896
vn -0.2262 0.3390 0.9132
vn -0.2692 0.1882 0.9445
vn 0.0000 -0.3115 0.9502
vn 0.0000 0.4838 0.8752
vn 0.0008 0.1882 0.9821
vn 0.6542 0.0941 0.7505
vn -0.6555 0.1090 0.7472
vn -0.6968 0.0493 0.7155
vn 0.0000 0.0635 0.9980
vn 0.6953 0.0413 0.7175
vn 0.0000 -0.0038 1.0000
vn 0.6996 0.0032 0.7145
vn -0.7001 0.0049 0.7140
vn -0.7010 -0.0023 0.7132
vn 0.0000 -0.0374 0.9993
vn 0.7010 -0.0023 0.7132
vn 0.0000 -0.1285 0.9917
vn 0.7218 -0.3212 0.6131
vn 0.7046 -0.0074 0.7096
vn 0.0000 -0.0723 0.9974
vn -0.7046 -0.0074 0.7096
vn -0.7218 -0.3212 0.6131
vn -0.3267 -0.7586 0.5637
vn 0.0000 -0.7953 0.6062
vn 0.3267 -0.7586 0.5637
vn 0.0000 -0.0551 0.9985
vn 0.7041 0.0005 0.7101
vn -0.7041 0.0005 0.7101
vn 0.4153 0.2556 -0.8730
vn 0.5118 0.1692 -0.8422
vn 0.3162 0.1893 -0.9296
vn 0.2437 0.2958 -0.9236
vn 0.8973 0.3884 -0.2097
vn 0.9565 0.2460 -0.1566
vn 0.6376 0.7059 -0.3086
vn 0.8130 0.5209 -0.2598
vn 0.3505 0.8611 -0.3683
vn 0.4367 -0.4285 -0.7909
vn 0.5976 -0.7483 -0.2879
vn 0.5852 -0.5025 -0.6364
vn 0.2875 -0.4696 -0.8347
vn 0.8874 -0.4355 -0.1509
vn 0.7031 -0.6896 -0.1732
vn 0.5264 -0.2616 -0.8089
vn 0.9693 -0.1987 -0.1449
vn 0.3252 -0.3319 -0.8855
vn 0.5571 -0.0071 -0.8304
vn 0.3495 -0.0291 -0.9365
vn 0.9889 0.0489 -0.1403
vn -0.5571 -0.0071 -0.8304
vn -0.5264 -0.2616 -0.8089
vn -0.9693 -0.1987 -0.1449
vn -0.9889 0.0489 -0.1403
vn -0.3495 -0.0291 -0.9365
vn -0.3252 -0.3319 -0.8855
vn -0.5118 0.1692 -0.8422
vn -0.3162 0.1893 -0.9296
vn -0.9565 0.2460 -0.1566
vn 0.0000 -0.0399 -0.9992
vn 0.0000 -0.3621 -0.9321
vn 0.0000 0.1968 -0.9804
vn -0.4375 -0.4282 -0.7907
vn -0.6023 -0.7447 -0.2875
vn -0.7031 -0.6896 -0.1732
vn -0.8874 -0.4355 -0.1509
vn -0.2882 -0.4690 -0.8348
vn -0.5898 -0.4905 -0.6414
vn 0.0001 -0.4837 -0.8752
vn 0.0001 -0.3782 -0.9257
vn -0.4153 0.2556 -0.8730
vn -0.8973 0.3884 -0.2097
vn -0.2437 0.2958 -0.9236
vn -0.6376 0.7059 -0.3086
vn -0.3505 0.8611 -0.3683
vn -0.8130 0.5209 -0.2598
vn 0.0000 0.3113 -0.9503
vn 0.0000 0.9210 -0.3894
vn -0.0007 -0.1879 -0.9822
vn 0.7244 -0.1881 -0.6632
vn -0.7280 -0.1686 -0.6644
vn 0.0000 -0.0634 -0.9980
vn -0.7192 -0.0398 -0.6937
vn 0.7173 -0.0491 -0.6950
vn 0.0000 0.0038 -1.0000
vn 0.7096 0.0090 -0.7046
vn -0.7101 0.0107 -0.7040
vn 0.0000 0.0374 -0.9993
vn -0.7053 0.0517 -0.7069
vn 0.7053 0.0517 -0.7069
vn 0.0000 0.1286 -0.9917
vn 0.0000 0.0722 -0.9974
vn 0.7068 0.0956 -0.7009
vn 0.7400 -0.2260 -0.6335
vn -0.7400 -0.2260 -0.6335
vn -0.7068 0.0956 -0.7009
vn 0.0000 -0.6561 -0.7546
vn -0.3438 -0.6189 -0.7062
vn 0.3438 -0.6189 -0.7062
vn 0.0000 0.0551 -0.9985
vn 0.7051 0.0792 -0.7047
vn -0.7051 0.0792 -0.7047
usemtl None
s 1
f 1//1 37//2 64//3 30//4
f 1//1 30//4 57//5 16//6
f 1//1 16//6 53//7 26//8
f 1//1 26//8 60//9 37//2
f 2//10 35//11 59//12 15//13
f 2//10 15//13 51//14 20//15
f 2//10 20//15 56//16 28//17
f 2//10 28//17 62//18 35//11
f 3//19 33//20 62//18 28//17
f 3//19 28//17 56//16 21//21
f 3//19 21//21 57//5 30//4
f 3//19 30//4 64//3 33//20
f 4//22 19//23 55//24 22//25
f 4//22 22//25 63//26 32//27
f 4//22 32//27 65//28 23//29
f 4//22 23//29 54//30 19//23
f 5//31 32//27 63//26 29//32
f 5//31 29//32 62//18 33//20
f 5//31 33//20 64//3 31//33
f 5//31 31//33 65//28 32//27
f 6//34 14//35 50//36 24//37
f 6//34 24//37 58//38 34//39
f 6//34 34//39 63//26 22//25
f 6//34 22//25 55//24 14//35
f 7//40 34//39 58//38 25//41
f 7//40 25//41 59//12 35//11
f 7//40 35//11 62//18 29//32
f 7//40 29//32 63//26 34//39
f 8//42 18//43 54//30 23//29
f 8//42 23//29 65//28 36//44
f 8//42 36//44 61//45 17//46
f 8//42 17//46 52//47 18//43
f 9//48 36//44 65//28 31//33
f 9//48 31//33 64//3 37//2
f 9//48 37//2 60//9 27//49
f 9//48 27//49 61//45 36//44
f 10//50 40//51 59//12 25//41
f 10//50 25//41 58//38 39//52
f 10//50 39//52 66//53 38//54
f 10//50 38//54 67//55 40//51
f 11//56 43//57 67//55 38//54
f 11//56 38//54 66//53 42//58
f 11//56 42//58 68//59 41//60
f 11//56 41//60 69//61 43//57
f 12//62 48//63 73//64 49//65
f 12//62 49//65 72//66 45//67
f 12//62 45//67 70//68 44//69
f 12//62 44//69 71//70 48//63
f 13//71 46//72 69//61 41//60
f 13//71 41//60 68//59 47//73
f 13//71 47//73 72//66 49//65
f 13//71 49//65 73//64 46//72
f 74//74 103//75 137//76 110//77
f 74//74 89//78 130//79 103//75
f 74//74 99//80 126//81 89//78
f 74//74 110//77 133//82 99//80
f 75//83 88//84 132//85 108//86
f 75//83 93//87 124//88 88//84
f 75//83 101//89 129//90 93//87
f 75//83 108//86 135//91 101//89
f 76//92 101//89 135//91 106//93
f 76//92 94//94 129//90 101//89
f 76//92 103//75 130//79 94//94
f 76//92 106//93 137//76 103//75
f 77//95 95//96 128//97 92//98
f 77//95 105//99 136//100 95//96
f 77//95 96//101 138//102 105//99
f 77//95 92//98 127//103 96//101
f 78//104 102//105 136//100 105//99
f 78//104 106//93 135//91 102//105
f 78//104 104//106 137//76 106//93
f 78//104 105//99 138//102 104//106
f 79//107 97//108 123//109 87//110
f 79//107 107//111 131//112 97//108
f 79//107 95//96 136//100 107//111
f 79//107 87//110 128//97 95//96
f 80//113 98//114 131//112 107//111
f 80//113 108//86 132//85 98//114
f 80//113 102//105 135//91 108//86
f 80//113 107//111 136//100 102//105
f 81//115 96//101 127//103 91//116
f 81//115 109//117 138//102 96//101
f 81//115 90//118 134//119 109//117
f 81//115 91//116 125//120 90//118
f 82//121 104//106 138//102 109//117
f 82//121 110//77 137//76 104//106
f 82//121 100//122 133//82 110//77
f 82//121 109//117 134//119 100//122
f 83//123 98//114 132//85 113//124
f 83//123 112//125 131//112 98//114
f 83//123 111//126 139//127 112//125
f 83//123 113//124 140//128 111//126
f 84//129 111//126 140//128 116//130
f 84//129 115//131 139//127 111//126
f 84//129 114//132 141//133 115//131
f 84//129 116//130 142//134 114//132
f 85//135 122//136 146//137 121//138
f 85//135 118//139 145//140 122//136
f 85//135 117//141 143//142 118//139
f 85//135 121//138 144//143 117//141
f 86//144 114//132 142//134 119//145
f 86//144 120//146 141//133 114//132
f 86//144 122//136 145//140 120//146
f 86//144 119//145 146//137 122//136
f 14//35 55//24 128//97 87//110
f 50//36 14//35 87//110 123//109
f 15//13 59//12 132//85 88//84
f 51//14 15//13 88//84 124//88
f 16//6 57//5 130//79 89//78
f 53//7 16//6 89//78 126//81
f 17//46 61//45 134//119 90//118
f 52//47 17//46 90//118 125//120
f 18//43 52//47 125//120 91//116
f 54//30 18//43 91//116 127//103
f 19//23 54//30 127//103 92//98
f 55//24 19//23 92//98 128//97
f 20//15 51//14 124//88 93//87
f 56//16 20//15 93//87 129//90
f 21//21 56//16 129//90 94//94
f 57//5 21//21 94//94 130//79
f 24//37 50//36 123//109 97//108
f 58//38 24//37 97//108 131//112
f 26//8 53//7 126//81 99//80
f 60//9 26//8 99//80 133//82
f 27//49 60//9 133//82 100//122
f 61//45 27//49 100//122 134//119
f 39//52 58//38 131//112 112//125
f 66//53 39//52 112//125 139//127
f 40//51 67//55 140//128 113//124
f 59//12 40//51 113//124 132//85
f 42//58 66//53 139//127 115//131
f 68//59 42//58 115//131 141//133
f 43//57 69//61 142//134 116//130
f 67//55 43//57 116//130 140//128
f 44//69 70//68 143//142 117//141
f 71//70 44//69 117//141 144//143
f 45//67 72//66 145//140 118//139
f 70//68 45//67 118//139 143//142
f 46//72 73//64 146//137 119//145
f 69//61 46//72 119//145 142//134
f 47//73 68//59 141//133 120//146
f 72//66 47//73 120//146 145//140
f 48//63 71//70 144//143 121//138
f 73//64 48//63 121//138 146//137
